<svg width="24" height="24" viewBox="0 0 24 24" fill="none" xmlns="http://www.w3.org/2000/svg">
    <path d="M10.607 4.09497C10.0598 4.16981 9.67688 4.67407 9.75172 5.22126C9.82656 5.76845 10.3308 6.15137 10.878 6.07652L10.607 4.09497ZM21.4978 11.0953L22.3571 10.5838L21.4978 11.0953ZM19.5181 14.02C19.1738 14.4519 19.2449 15.081 19.6767 15.4253C20.1086 15.7695 20.7378 15.6985 21.082 15.2666L19.5181 14.02ZM21.498 12.9043L22.3573 13.4157L21.498 12.9043ZM3.70711 2.29289C3.31659 1.90237 2.68342 1.90237 2.2929 2.29289C1.90237 2.68342 1.90237 3.31658 2.2929 3.70711L3.70711 2.29289ZM9.87868 9.87868L10.5858 9.17157L9.87868 9.87868ZM20.2929 21.7071C20.6834 22.0976 21.3166 22.0976 21.7071 21.7071C22.0976 21.3166 22.0976 20.6834 21.7071 20.2929L20.2929 21.7071ZM2.50205 11.0956L1.64275 10.5841H1.64275L2.50205 11.0956ZM7.18937 7.48108C7.65206 7.17953 7.78269 6.55998 7.48113 6.09729C7.17957 5.6346 6.56003 5.50398 6.09734 5.80554L7.18937 7.48108ZM2.50312 12.9062L3.36236 12.3947L2.50312 12.9062ZM17.9027 18.1944C18.3654 17.8928 18.496 17.2733 18.1944 16.8106C17.8929 16.3479 17.2733 16.2173 16.8106 16.5188L17.9027 18.1944ZM10.878 6.07652C14.3525 5.6013 18.0999 7.34166 20.6385 11.6068L22.3571 10.5838C19.4847 5.75792 15.016 3.49193 10.607 4.09497L10.878 6.07652ZM21.082 15.2666C21.5347 14.6987 21.9611 14.0815 22.3573 13.4157L20.6387 12.3928C20.2871 12.9836 19.9121 13.5257 19.5181 14.02L21.082 15.2666ZM20.6385 11.6068C20.7829 11.8493 20.7829 12.1507 20.6387 12.3928L22.3573 13.4157C22.8769 12.5429 22.8765 11.4564 22.3571 10.5838L20.6385 11.6068ZM12 14C10.8954 14 10 13.1046 10 12H8C8 14.2091 9.79086 16 12 16V14ZM2.2929 3.70711L9.17158 10.5858L10.5858 9.17157L3.70711 2.29289L2.2929 3.70711ZM10 12C10 11.4474 10.2228 10.9488 10.5858 10.5858L9.17158 9.17157C8.44881 9.89434 8 10.8957 8 12H10ZM9.17158 10.5858L13.4142 14.8284L14.8284 13.4142L10.5858 9.17157L9.17158 10.5858ZM13.4142 14.8284L20.2929 21.7071L21.7071 20.2929L14.8284 13.4142L13.4142 14.8284ZM13.4142 13.4142C13.0512 13.7772 12.5526 14 12 14V16C13.1043 16 14.1057 15.5512 14.8284 14.8284L13.4142 13.4142ZM2.2929 3.70711L20.2929 21.7071L21.7071 20.2929L3.70711 2.29289L2.2929 3.70711ZM3.36136 11.607C4.45476 9.77 5.77436 8.40332 7.18937 7.48108L6.09734 5.80554C4.39939 6.91217 2.87507 8.51367 1.64275 10.5841L3.36136 11.607ZM1.64387 13.4178C3.59165 16.6894 6.2706 18.7893 9.19314 19.6107C12.121 20.4335 15.212 19.948 17.9027 18.1944L16.8106 16.5188C14.5834 17.9705 12.085 18.3459 9.73424 17.6852C7.37816 17.0231 5.08929 15.2953 3.36236 12.3947L1.64387 13.4178ZM1.64275 10.5841C1.12269 11.4579 1.12491 12.5461 1.64387 13.4178L3.36236 12.3947C3.2175 12.1514 3.21773 11.8483 3.36136 11.607L1.64275 10.5841Z" fill="#626262"/>
</svg>
