<svg width="100%" height="100%" viewBox="0 0 4257 4107" version="1.1" xmlns="http://www.w3.org/2000/svg" xmlns:xlink="http://www.w3.org/1999/xlink" xml:space="preserve" xmlns:serif="http://www.serif.com/" style="fill-rule:evenodd;clip-rule:evenodd;stroke-linejoin:round;stroke-miterlimit:2;">
    <g transform="matrix(1,0,0,1,-5216.81,0)">
        <g id="carotte" transform="matrix(1,0,0,1,377.207,0)">
            <rect x="4839.6" y="0" width="4256.76" height="4106.38" style="fill:none;"/>
            <g transform="matrix(1.20653,0,0,1.20653,-7671.92,-396.011)">
                <path d="M12664.5,1384.73C12664.5,1384.73 13038.6,693.992 13129.4,563.239C13190.9,474.644 13311.2,545.417 13259.8,637.794C13211.8,724.008 12978.4,1135.6 12978.4,1135.6C12978.4,1135.6 13485.8,635.091 13601.9,549.428C13686.5,487.061 13762.2,602.755 13702.4,660.543C13597.5,762.05 13075.9,1249.96 13075.9,1249.96C13075.9,1249.96 13437.5,1101.65 13514.6,1071.22C13620.5,1029.45 13683.1,1164.72 13571.7,1210C13443.3,1262.19 12813.9,1519.29 12813.9,1519.29L12664.5,1384.73Z" style="fill:rgb(0,146,5);"/>
            </g>
            <g id="carotte1" serif:id="carotte" transform="matrix(1,0,0,1,-4726.58,132.717)">
                <path d="M12131.6,940.258C12528.4,1204.23 12870.7,1723.24 12691.4,2030.45C12409.8,2513.02 9996.78,3920.64 9795.73,3719.59C9667,3590.86 10197.9,2555.33 10723.2,1753.11C10760.4,1762.4 10799.5,1767.36 10839.8,1767.36C11079.5,1767.36 11276.4,1591.98 11294.8,1369.44C11364.9,1392.41 11441.4,1405.05 11521.4,1405.05C11843.9,1405.05 12108.5,1199.94 12131.6,940.258Z" style="fill:rgb(255,133,0);"/>
            </g>
            <g transform="matrix(1,0,0,1,-4726.58,132.717)">
                <path d="M12131.9,940.258C12131.9,940.258 12227.5,1007.18 12270.2,1044.44C12329.3,1095.96 12365.6,1132.48 12365.6,1132.48C12343.6,1595.59 11823.8,1721.78 11528.9,1610.76C11434.4,2138.62 10845.7,2060 10688.9,1810.07L10728.5,1753.24C11237.6,1837.67 11298.1,1368.53 11298.1,1368.53C11713.1,1485.76 12090.8,1284.24 12131.9,940.258Z" style="fill:rgb(255,94,0);"/>
            </g>
            <g id="carotte2" serif:id="carotte" transform="matrix(1,0,0,1,-4726.58,132.717)">
                <path d="M10898.5,3308.97C10893,3151.99 10819.7,3024.54 10730.2,2940.6C10685,2898.14 10727.2,2821.76 10788.1,2876.16C10923.9,2997.37 10972,3138.77 10981.8,3263.19C10953.9,3278.7 10926.1,3293.98 10898.5,3308.97ZM10074.9,2866.77C10171.4,2907 10266.7,2972.41 10344.9,3076.74C10395.8,3144.6 10304.5,3173.27 10264.4,3122.53C10210.6,3054.4 10133.3,2990.25 10035,2946.51C10047.9,2920.3 10061.2,2893.71 10074.9,2866.77ZM11499.3,2959.66C11605.9,2716.08 11531.5,2503.01 11417,2373.22C11375.9,2326.68 11425.1,2254.61 11480.7,2314.5C11667.6,2516.02 11651.1,2744.62 11612.6,2888.76C11575.1,2912.49 11537.3,2936.15 11499.3,2959.66ZM10502.6,2103.07C10639.1,2159.13 10786,2261.38 10870.3,2448.48C10905.2,2525.8 10809.8,2533.88 10781.8,2475.63C10726.5,2360.92 10620.2,2243.59 10458.7,2175.81C10473.2,2151.52 10487.9,2127.27 10502.6,2103.07ZM12346.2,2375.32C12475.1,2070.88 12360.2,1834.17 12210.9,1709.2C12163.3,1669.36 12201.1,1590.71 12265,1641.58C12526.9,1850.01 12496.7,2143.43 12467.7,2273.62C12430.5,2306.28 12389.9,2340.26 12346.2,2375.32Z" style="fill:rgb(255,94,0);"/>
            </g>
        </g>
    </g>
</svg>
