<svg width="100%" height="100%" viewBox="0 0 17905 3898" version="1.1" xmlns="http://www.w3.org/2000/svg" xmlns:xlink="http://www.w3.org/1999/xlink" xml:space="preserve" xmlns:serif="http://www.serif.com/" style="fill-rule:evenodd;clip-rule:evenodd;stroke-linejoin:round;stroke-miterlimit:2;">
    <g transform="matrix(1,0,0,1,-9652.4,0)">
        <g transform="matrix(1.20653,0,0,1.20653,-2945.33,-528.728)">
            <path d="M12664.5,1384.73C12664.5,1384.73 13038.6,693.992 13129.4,563.239C13190.9,474.644 13311.2,545.417 13259.8,637.794C13211.8,724.008 12978.4,1135.6 12978.4,1135.6C12978.4,1135.6 13485.8,635.091 13601.9,549.428C13686.5,487.061 13762.2,602.755 13702.4,660.543C13597.5,762.05 13075.9,1249.96 13075.9,1249.96C13075.9,1249.96 13437.5,1101.65 13514.6,1071.22C13620.5,1029.45 13683.1,1164.72 13571.7,1210C13443.3,1262.19 12813.9,1519.29 12813.9,1519.29L12664.5,1384.73Z" style="fill:rgb(0,146,5);"/>
        </g>
        <path id="carotte" d="M12131.6,940.258C12528.4,1204.23 12870.7,1723.24 12691.4,2030.45C12409.8,2513.02 9996.78,3920.64 9795.73,3719.59C9667,3590.86 10197.9,2555.33 10723.2,1753.11C10760.4,1762.4 10799.5,1767.36 10839.8,1767.36C11079.5,1767.36 11276.4,1591.98 11294.8,1369.44C11364.9,1392.41 11441.4,1405.05 11521.4,1405.05C11843.9,1405.05 12108.5,1199.94 12131.6,940.258Z" style="fill:rgb(255,133,0);"/>
        <path d="M12131.9,940.258C12131.9,940.258 12227.5,1007.18 12270.2,1044.44C12329.3,1095.96 12365.6,1132.48 12365.6,1132.48C12343.6,1595.59 11823.8,1721.78 11528.9,1610.76C11434.4,2138.62 10845.7,2060 10688.9,1810.07L10728.5,1753.24C11237.6,1837.67 11298.1,1368.53 11298.1,1368.53C11713.1,1485.76 12090.8,1284.24 12131.9,940.258Z" style="fill:rgb(255,94,0);"/>
        <path id="carotte1" serif:id="carotte" d="M10898.5,3308.97C10893,3151.99 10819.7,3024.54 10730.2,2940.6C10685,2898.14 10727.2,2821.76 10788.1,2876.16C10923.9,2997.37 10972,3138.77 10981.8,3263.19C10953.9,3278.7 10926.1,3293.98 10898.5,3308.97ZM10074.9,2866.77C10171.4,2907 10266.7,2972.41 10344.9,3076.74C10395.8,3144.6 10304.5,3173.27 10264.4,3122.53C10210.6,3054.4 10133.3,2990.25 10035,2946.51C10047.9,2920.3 10061.2,2893.71 10074.9,2866.77ZM11499.3,2959.66C11605.9,2716.08 11531.5,2503.01 11417,2373.22C11375.9,2326.68 11425.1,2254.61 11480.7,2314.5C11667.6,2516.02 11651.1,2744.62 11612.6,2888.76C11575.1,2912.49 11537.3,2936.15 11499.3,2959.66ZM10502.6,2103.07C10639.1,2159.13 10786,2261.38 10870.3,2448.48C10905.2,2525.8 10809.8,2533.88 10781.8,2475.63C10726.5,2360.92 10620.2,2243.59 10458.7,2175.81C10473.2,2151.52 10487.9,2127.27 10502.6,2103.07ZM12346.2,2375.32C12475.1,2070.88 12360.2,1834.17 12210.9,1709.2C12163.3,1669.36 12201.1,1590.71 12265,1641.58C12526.9,1850.01 12496.7,2143.43 12467.7,2273.62C12430.5,2306.28 12389.9,2340.26 12346.2,2375.32Z" style="fill:rgb(255,94,0);"/>
        <g transform="matrix(1,0,0,1,-991.787,511.775)">
            <path d="M15274.2,1838.6C15244.5,1838.6 15221.8,1830.45 15205.8,1814.15C15189.9,1797.86 15181.9,1774.89 15181.9,1745.26L15181.9,1128.6C15181.9,1098.23 15190.5,1075.08 15207.5,1059.15C15224.5,1043.23 15248.6,1035.26 15279.7,1035.26C15305.7,1035.26 15326.2,1040.26 15341.4,1050.26C15356.6,1060.26 15370.5,1076.75 15383.1,1099.71L15621.9,1528.6L15583.1,1528.6L15820.8,1099.71C15834.2,1076.75 15848.4,1060.26 15863.6,1050.26C15878.8,1040.26 15899.4,1035.26 15925.3,1035.26C15954.9,1035.26 15977.7,1043.23 15993.6,1059.15C16009.5,1075.08 16017.5,1098.23 16017.5,1128.6L16017.5,1745.26C16017.5,1774.89 16009.7,1797.86 15994.2,1814.15C15978.6,1830.45 15955.7,1838.6 15925.3,1838.6C15895.7,1838.6 15872.9,1830.45 15856.9,1814.15C15841,1797.86 15833.1,1774.89 15833.1,1745.26L15833.1,1363.04L15856.4,1363.04L15677.5,1674.15C15667.1,1690.45 15656.2,1702.67 15644.7,1710.82C15633.2,1718.97 15617.9,1723.04 15598.6,1723.04C15580.1,1723.04 15564.9,1718.97 15553.1,1710.82C15541.2,1702.67 15530.5,1690.45 15520.8,1674.15L15340.8,1361.93L15366.4,1361.93L15366.4,1745.26C15366.4,1774.89 15358.6,1797.86 15343.1,1814.15C15327.5,1830.45 15304.5,1838.6 15274.2,1838.6Z" style="fill-rule:nonzero;"/>
        </g>
        <g transform="matrix(1,0,0,1,-991.787,511.775)">
            <path d="M16220.8,1838.6C16197.9,1838.6 16178.6,1833.23 16163.1,1822.49C16147.5,1811.75 16137.9,1796.93 16134.2,1778.04C16130.5,1759.15 16133.8,1737.86 16144.2,1714.15L16420.8,1118.6C16434.2,1089.71 16450.7,1068.6 16470.3,1055.26C16489.9,1041.93 16512.3,1035.26 16537.5,1035.26C16562.7,1035.26 16584.7,1041.93 16603.6,1055.26C16622.5,1068.6 16639,1089.71 16653.1,1118.6L16929.7,1714.15C16941.6,1737.86 16945.8,1759.34 16942.5,1778.6C16939.2,1797.86 16929.9,1812.67 16914.7,1823.04C16899.5,1833.41 16880.8,1838.6 16858.6,1838.6C16829,1838.6 16806.2,1831.93 16790.3,1818.6C16774.4,1805.26 16760.1,1783.78 16747.5,1754.15L16687.5,1613.04L16765.3,1669.71L16307.5,1669.71L16386.4,1613.04L16326.4,1754.15C16313.1,1783.78 16299.4,1805.26 16285.3,1818.6C16271.2,1831.93 16249.7,1838.6 16220.8,1838.6ZM16535.3,1258.6L16406.4,1566.38L16375.3,1513.04L16698.6,1513.04L16667.5,1566.38L16537.5,1258.6L16535.3,1258.6Z" style="fill-rule:nonzero;"/>
        </g>
        <g transform="matrix(1,0,0,1,-991.787,511.775)">
            <path d="M17149.7,1838.6C17118.6,1838.6 17094.9,1830.45 17078.6,1814.15C17062.3,1797.86 17054.2,1773.78 17054.2,1741.93L17054.2,1136.38C17054.2,1103.78 17062.3,1078.78 17078.6,1061.38C17094.9,1043.97 17116.4,1035.26 17143.1,1035.26C17166.8,1035.26 17185.3,1039.71 17198.6,1048.6C17211.9,1057.49 17226.8,1072.3 17243.1,1093.04L17595.3,1533.04L17564.2,1533.04L17564.2,1130.82C17564.2,1099.71 17572.1,1076 17588.1,1059.71C17604,1043.41 17627.5,1035.26 17658.6,1035.26C17689.7,1035.26 17713.2,1043.41 17729.2,1059.71C17745.1,1076 17753.1,1099.71 17753.1,1130.82L17753.1,1746.38C17753.1,1774.52 17745.7,1796.93 17730.8,1813.6C17716,1830.26 17696,1838.6 17670.8,1838.6C17645.7,1838.6 17625.8,1833.97 17611.4,1824.71C17596.9,1815.45 17581.6,1800.82 17565.3,1780.82L17213.1,1339.71L17244.2,1339.71L17244.2,1741.93C17244.2,1773.78 17236.2,1797.86 17220.3,1814.15C17204.4,1830.45 17180.8,1838.6 17149.7,1838.6Z" style="fill-rule:nonzero;"/>
        </g>
        <g transform="matrix(1,0,0,1,-991.787,511.775)">
            <path d="M18318.6,1840.82C18229,1840.82 18152.9,1824.15 18090.3,1790.82C18027.7,1757.49 17980.1,1710.82 17947.5,1650.82C17914.9,1590.82 17898.6,1520.82 17898.6,1440.82C17898.6,1378.6 17908.4,1322.49 17928.1,1272.49C17947.7,1222.49 17976,1179.52 18013.1,1143.6C18050.1,1107.67 18095.5,1080.26 18149.2,1061.38C18202.9,1042.49 18263.8,1033.04 18331.9,1033.04C18369,1033.04 18406.8,1036.56 18445.3,1043.6C18483.8,1050.63 18521.6,1063.78 18558.6,1083.04C18577.9,1091.93 18591,1104.34 18598.1,1120.26C18605.1,1136.19 18607.3,1152.86 18604.7,1170.26C18602.1,1187.67 18595.8,1203.6 18585.8,1218.04C18575.8,1232.49 18562.3,1242.12 18545.3,1246.93C18528.2,1251.75 18509,1249.34 18487.5,1239.71C18465.3,1229.34 18441.2,1221.38 18415.3,1215.82C18389.4,1210.26 18361.9,1207.49 18333.1,1207.49C18283.4,1207.49 18242.1,1216.38 18209.2,1234.15C18176.2,1251.93 18151.6,1278.23 18135.3,1313.04C18119,1347.86 18110.8,1390.45 18110.8,1440.82C18110.8,1516.38 18129.4,1573.41 18166.4,1611.93C18203.4,1650.45 18258.2,1669.71 18330.8,1669.71C18353.1,1669.71 18377.3,1667.49 18403.6,1663.04C18429.9,1658.6 18456.4,1652.3 18483.1,1644.15L18445.3,1720.82L18445.3,1530.82L18367.5,1530.82C18342.3,1530.82 18322.9,1524.52 18309.2,1511.93C18295.5,1499.34 18288.6,1481.56 18288.6,1458.6C18288.6,1435.63 18295.5,1418.04 18309.2,1405.82C18322.9,1393.6 18342.3,1387.49 18367.5,1387.49L18531.9,1387.49C18557.9,1387.49 18577.7,1394.34 18591.4,1408.04C18605.1,1421.75 18611.9,1441.56 18611.9,1467.49L18611.9,1713.04C18611.9,1735.26 18607.3,1754.15 18598.1,1769.71C18588.8,1785.26 18574.2,1796.38 18554.2,1803.04C18519.4,1814.89 18481.6,1824.15 18440.8,1830.82C18400.1,1837.49 18359.4,1840.82 18318.6,1840.82Z" style="fill-rule:nonzero;"/>
        </g>
        <g transform="matrix(1,0,0,1,-991.787,511.775)">
            <path d="M18877.5,1828.6C18842.7,1828.6 18816.2,1819.52 18798.1,1801.38C18779.9,1783.23 18770.8,1757.12 18770.8,1723.04L18770.8,1150.82C18770.8,1116.75 18779.9,1090.63 18798.1,1072.49C18816.2,1054.34 18842.7,1045.26 18877.5,1045.26L19254.2,1045.26C19280.8,1045.26 19300.8,1051.93 19314.2,1065.26C19327.5,1078.6 19334.2,1097.86 19334.2,1123.04C19334.2,1148.97 19327.5,1168.78 19314.2,1182.49C19300.8,1196.19 19280.8,1203.04 19254.2,1203.04L18966.4,1203.04L18966.4,1351.93L19229.7,1351.93C19255.7,1351.93 19275.5,1358.6 19289.2,1371.93C19302.9,1385.26 19309.7,1404.89 19309.7,1430.82C19309.7,1456.75 19302.9,1476.38 19289.2,1489.71C19275.5,1503.04 19255.7,1509.71 19229.7,1509.71L18966.4,1509.71L18966.4,1670.82L19254.2,1670.82C19280.8,1670.82 19300.8,1677.67 19314.2,1691.38C19327.5,1705.08 19334.2,1724.52 19334.2,1749.71C19334.2,1775.63 19327.5,1795.26 19314.2,1808.6C19300.8,1821.93 19280.8,1828.6 19254.2,1828.6L18877.5,1828.6Z" style="fill-rule:nonzero;"/>
        </g>
        <g transform="matrix(1,0,0,1,-991.787,511.775)">
            <path d="M20101.9,1838.6C20069.4,1838.6 20044.2,1829.52 20026.4,1811.38C20008.6,1793.23 19999.7,1767.86 19999.7,1735.26L19999.7,1211.93L19825.3,1211.93C19797.9,1211.93 19776.9,1204.71 19762.5,1190.26C19748.1,1175.82 19740.8,1155.26 19740.8,1128.6C19740.8,1101.19 19748.1,1080.45 19762.5,1066.38C19776.9,1052.3 19797.9,1045.26 19825.3,1045.26L20378.6,1045.26C20406,1045.26 20426.9,1052.3 20441.4,1066.38C20455.8,1080.45 20463.1,1101.19 20463.1,1128.6C20463.1,1155.26 20455.8,1175.82 20441.4,1190.26C20426.9,1204.71 20406,1211.93 20378.6,1211.93L20204.2,1211.93L20204.2,1735.26C20204.2,1767.86 20195.7,1793.23 20178.6,1811.38C20161.6,1829.52 20136,1838.6 20101.9,1838.6Z" style="fill-rule:nonzero;"/>
        </g>
        <g transform="matrix(1,0,0,1,-991.787,511.775)">
            <path d="M20659.7,1828.6C20624.9,1828.6 20598.4,1819.52 20580.3,1801.38C20562.1,1783.23 20553.1,1757.12 20553.1,1723.04L20553.1,1150.82C20553.1,1116.75 20562.1,1090.63 20580.3,1072.49C20598.4,1054.34 20624.9,1045.26 20659.7,1045.26L21036.4,1045.26C21063.1,1045.26 21083.1,1051.93 21096.4,1065.26C21109.7,1078.6 21116.4,1097.86 21116.4,1123.04C21116.4,1148.97 21109.7,1168.78 21096.4,1182.49C21083.1,1196.19 21063.1,1203.04 21036.4,1203.04L20748.6,1203.04L20748.6,1351.93L21011.9,1351.93C21037.9,1351.93 21057.7,1358.6 21071.4,1371.93C21085.1,1385.26 21091.9,1404.89 21091.9,1430.82C21091.9,1456.75 21085.1,1476.38 21071.4,1489.71C21057.7,1503.04 21037.9,1509.71 21011.9,1509.71L20748.6,1509.71L20748.6,1670.82L21036.4,1670.82C21063.1,1670.82 21083.1,1677.67 21096.4,1691.38C21109.7,1705.08 21116.4,1724.52 21116.4,1749.71C21116.4,1775.63 21109.7,1795.26 21096.4,1808.6C21083.1,1821.93 21063.1,1828.6 21036.4,1828.6L20659.7,1828.6Z" style="fill-rule:nonzero;"/>
        </g>
        <g transform="matrix(1,0,0,1,-991.787,511.775)">
            <path d="M21537.5,1840.82C21507.9,1840.82 21476.9,1838.78 21444.7,1834.71C21412.5,1830.63 21381.9,1824.52 21353.1,1816.38C21324.2,1808.23 21298.2,1798.6 21275.3,1787.49C21255.3,1777.86 21241.2,1765.08 21233.1,1749.15C21224.9,1733.23 21221.9,1716.38 21224.2,1698.6C21226.4,1680.82 21232.7,1665.08 21243.1,1651.38C21253.4,1637.67 21267.1,1628.41 21284.2,1623.6C21301.2,1618.78 21320.5,1621.19 21341.9,1630.82C21370.1,1644.15 21401.9,1654.52 21437.5,1661.93C21473.1,1669.34 21506.4,1673.04 21537.5,1673.04C21586.4,1673.04 21620.7,1666.56 21640.3,1653.6C21659.9,1640.63 21669.7,1624.52 21669.7,1605.26C21669.7,1588.23 21662.9,1574.52 21649.2,1564.15C21635.5,1553.78 21611.2,1544.89 21576.4,1537.49L21446.4,1509.71C21375.3,1494.89 21322.3,1468.97 21287.5,1431.93C21252.7,1394.89 21235.3,1347.12 21235.3,1288.6C21235.3,1250.08 21243.2,1215.08 21259.2,1183.6C21275.1,1152.12 21297.7,1125.26 21326.9,1103.04C21356.2,1080.82 21391,1063.6 21431.4,1051.38C21471.8,1039.15 21516.8,1033.04 21566.4,1033.04C21604.9,1033.04 21644,1037.3 21683.6,1045.82C21723.2,1054.34 21757.5,1067.12 21786.4,1084.15C21803.4,1093.04 21815.7,1105.26 21823.1,1120.82C21830.5,1136.38 21833.4,1152.49 21831.9,1169.15C21830.5,1185.82 21824.7,1200.45 21814.7,1213.04C21804.7,1225.63 21791.4,1233.97 21774.7,1238.04C21758.1,1242.12 21738.2,1239.34 21715.3,1229.71C21693.8,1220.08 21669.5,1212.86 21642.5,1208.04C21615.5,1203.23 21589.4,1200.82 21564.2,1200.82C21536.8,1200.82 21513.4,1203.97 21494.2,1210.26C21474.9,1216.56 21460.3,1225.63 21450.3,1237.49C21440.3,1249.34 21435.3,1263.04 21435.3,1278.6C21435.3,1294.15 21441.8,1307.3 21454.7,1318.04C21467.7,1328.78 21491.6,1337.86 21526.4,1345.26L21655.3,1373.04C21727.1,1388.6 21780.8,1414.15 21816.4,1449.71C21851.9,1485.26 21869.7,1531.56 21869.7,1588.6C21869.7,1627.12 21861.9,1661.93 21846.4,1693.04C21830.8,1724.15 21808.6,1750.63 21779.7,1772.49C21750.8,1794.34 21716,1811.19 21675.3,1823.04C21634.5,1834.89 21588.6,1840.82 21537.5,1840.82Z" style="fill-rule:nonzero;"/>
        </g>
        <g transform="matrix(1,0,0,1,-991.787,511.775)">
            <path d="M22727.5,1840.82C22640.8,1840.82 22566.4,1824.15 22504.2,1790.82C22441.9,1757.49 22394.4,1710.45 22361.4,1649.71C22328.4,1588.97 22311.9,1517.86 22311.9,1436.38C22311.9,1375.63 22321.4,1320.45 22340.3,1270.82C22359.2,1221.19 22386.6,1178.6 22422.5,1143.04C22458.4,1107.49 22502.1,1080.26 22553.6,1061.38C22605.1,1042.49 22663.1,1033.04 22727.5,1033.04C22761.6,1033.04 22796.9,1036.93 22833.6,1044.71C22870.3,1052.49 22902.7,1064.15 22930.8,1079.71C22951.6,1090.82 22966,1104.89 22974.2,1121.93C22982.3,1138.97 22985.1,1156.38 22982.5,1174.15C22979.9,1191.93 22973.4,1207.86 22963.1,1221.93C22952.7,1236 22939.4,1245.45 22923.1,1250.26C22906.8,1255.08 22889,1252.67 22869.7,1243.04C22847.5,1232.67 22825.5,1224.71 22803.6,1219.15C22781.8,1213.6 22759,1210.82 22735.3,1210.82C22689.4,1210.82 22651,1219.52 22620.3,1236.93C22589.5,1254.34 22566.4,1279.71 22550.8,1313.04C22535.3,1346.38 22527.5,1387.49 22527.5,1436.38C22527.5,1485.26 22535.3,1526.56 22550.8,1560.26C22566.4,1593.97 22589.5,1619.52 22620.3,1636.93C22651,1654.34 22689.4,1663.04 22735.3,1663.04C22754.5,1663.04 22775.3,1660.63 22797.5,1655.82C22819.7,1651 22841.6,1643.41 22863.1,1633.04C22885.3,1623.41 22905.1,1620.82 22922.5,1625.26C22939.9,1629.71 22954,1638.6 22964.7,1651.93C22975.5,1665.26 22982.3,1680.63 22985.3,1698.04C22988.2,1715.45 22985.8,1732.67 22978.1,1749.71C22970.3,1766.75 22956.8,1780.45 22937.5,1790.82C22911.6,1806.38 22879.5,1818.6 22841.4,1827.49C22803.2,1836.38 22765.3,1840.82 22727.5,1840.82Z" style="fill-rule:nonzero;"/>
        </g>
        <g transform="matrix(1,0,0,1,-991.787,511.775)">
            <path d="M23141.9,1838.6C23119,1838.6 23099.7,1833.23 23084.2,1822.49C23068.6,1811.75 23059,1796.93 23055.3,1778.04C23051.6,1759.15 23054.9,1737.86 23065.3,1714.15L23341.9,1118.6C23355.3,1089.71 23371.8,1068.6 23391.4,1055.26C23411,1041.93 23433.4,1035.26 23458.6,1035.26C23483.8,1035.26 23505.8,1041.93 23524.7,1055.26C23543.6,1068.6 23560.1,1089.71 23574.2,1118.6L23850.8,1714.15C23862.7,1737.86 23866.9,1759.34 23863.6,1778.6C23860.3,1797.86 23851,1812.67 23835.8,1823.04C23820.7,1833.41 23801.9,1838.6 23779.7,1838.6C23750.1,1838.6 23727.3,1831.93 23711.4,1818.6C23695.5,1805.26 23681.2,1783.78 23668.6,1754.15L23608.6,1613.04L23686.4,1669.71L23228.6,1669.71L23307.5,1613.04L23247.5,1754.15C23234.2,1783.78 23220.5,1805.26 23206.4,1818.6C23192.3,1831.93 23170.8,1838.6 23141.9,1838.6ZM23456.4,1258.6L23327.5,1566.38L23296.4,1513.04L23619.7,1513.04L23588.6,1566.38L23458.6,1258.6L23456.4,1258.6Z" style="fill-rule:nonzero;"/>
        </g>
        <g transform="matrix(1,0,0,1,-991.787,511.775)">
            <path d="M24077.5,1838.6C24044.9,1838.6 24019.7,1829.52 24001.9,1811.38C23984.2,1793.23 23975.3,1767.86 23975.3,1735.26L23975.3,1148.6C23975.3,1115.26 23984.4,1089.71 24002.5,1071.93C24020.7,1054.15 24046,1045.26 24078.6,1045.26L24351.9,1045.26C24440.8,1045.26 24509.5,1066.93 24558.1,1110.26C24606.6,1153.6 24630.8,1213.78 24630.8,1290.82C24630.8,1340.45 24619.9,1383.6 24598.1,1420.26C24576.2,1456.93 24544.7,1485.08 24503.6,1504.71C24462.5,1524.34 24411.9,1534.15 24351.9,1534.15L24360.8,1514.15L24414.2,1514.15C24446,1514.15 24474.2,1521.75 24498.6,1536.93C24523.1,1552.12 24543.4,1575.26 24559.7,1606.38L24615.3,1706.38C24627.1,1727.86 24632.7,1748.78 24631.9,1769.15C24631.2,1789.52 24623.2,1806.19 24608.1,1819.15C24592.9,1832.12 24570.8,1838.6 24541.9,1838.6C24513.1,1838.6 24489.5,1832.67 24471.4,1820.82C24453.2,1808.97 24437.1,1790.45 24423.1,1765.26L24321.9,1579.71C24313.1,1563.41 24301.8,1552.12 24288.1,1545.82C24274.4,1539.52 24258.6,1536.38 24240.8,1536.38L24179.7,1536.38L24179.7,1735.26C24179.7,1767.86 24171.2,1793.23 24154.2,1811.38C24137.1,1829.52 24111.6,1838.6 24077.5,1838.6ZM24179.7,1391.93L24315.3,1391.93C24354.5,1391.93 24384.5,1384.15 24405.3,1368.6C24426,1353.04 24436.4,1328.97 24436.4,1296.38C24436.4,1265.26 24426,1241.75 24405.3,1225.82C24384.5,1209.89 24354.5,1201.93 24315.3,1201.93L24179.7,1201.93L24179.7,1391.93Z" style="fill-rule:nonzero;"/>
        </g>
        <g transform="matrix(1,0,0,1,-991.787,511.775)">
            <path d="M25154.2,1840.82C25074.9,1840.82 25005.3,1823.97 24945.3,1790.26C24885.3,1756.56 24838.8,1709.34 24805.8,1648.6C24772.9,1587.86 24756.4,1517.12 24756.4,1436.38C24756.4,1375.63 24765.8,1320.45 24784.7,1270.82C24803.6,1221.19 24830.7,1178.6 24865.8,1143.04C24901,1107.49 24943.1,1080.26 24991.9,1061.38C25040.8,1042.49 25094.9,1033.04 25154.2,1033.04C25233.4,1033.04 25302.9,1049.71 25362.5,1083.04C25422.1,1116.38 25468.6,1163.23 25501.9,1223.6C25535.3,1283.97 25551.9,1354.89 25551.9,1436.38C25551.9,1497.12 25542.5,1552.3 25523.6,1601.93C25504.7,1651.56 25477.7,1694.34 25442.5,1730.26C25407.3,1766.19 25365.3,1793.6 25316.4,1812.49C25267.5,1831.38 25213.4,1840.82 25154.2,1840.82ZM25154.2,1669.71C25193.4,1669.71 25226.8,1660.45 25254.2,1641.93C25281.6,1623.41 25302.7,1596.75 25317.5,1561.93C25332.3,1527.12 25339.7,1485.26 25339.7,1436.38C25339.7,1363.04 25323.4,1306 25290.8,1265.26C25258.2,1224.52 25212.7,1204.15 25154.2,1204.15C25115.7,1204.15 25082.5,1213.23 25054.7,1231.38C25026.9,1249.52 25005.7,1275.82 24990.8,1310.26C24976,1344.71 24968.6,1386.75 24968.6,1436.38C24968.6,1509.71 24984.9,1566.93 25017.5,1608.04C25050.1,1649.15 25095.7,1669.71 25154.2,1669.71Z" style="fill-rule:nonzero;"/>
        </g>
        <g transform="matrix(1,0,0,1,-991.787,511.775)">
            <path d="M25936.4,1838.6C25903.8,1838.6 25878.6,1829.52 25860.8,1811.38C25843.1,1793.23 25834.2,1767.86 25834.2,1735.26L25834.2,1211.93L25659.7,1211.93C25632.3,1211.93 25611.4,1204.71 25596.9,1190.26C25582.5,1175.82 25575.3,1155.26 25575.3,1128.6C25575.3,1101.19 25582.5,1080.45 25596.9,1066.38C25611.4,1052.3 25632.3,1045.26 25659.7,1045.26L26213.1,1045.26C26240.5,1045.26 26261.4,1052.3 26275.8,1066.38C26290.3,1080.45 26297.5,1101.19 26297.5,1128.6C26297.5,1155.26 26290.3,1175.82 26275.8,1190.26C26261.4,1204.71 26240.5,1211.93 26213.1,1211.93L26038.6,1211.93L26038.6,1735.26C26038.6,1767.86 26030.1,1793.23 26013.1,1811.38C25996,1829.52 25970.5,1838.6 25936.4,1838.6Z" style="fill-rule:nonzero;"/>
        </g>
        <g transform="matrix(1,0,0,1,-991.787,511.775)">
            <path d="M26689.7,1838.6C26657.1,1838.6 26631.9,1829.52 26614.2,1811.38C26596.4,1793.23 26587.5,1767.86 26587.5,1735.26L26587.5,1211.93L26413.1,1211.93C26385.7,1211.93 26364.7,1204.71 26350.3,1190.26C26335.8,1175.82 26328.6,1155.26 26328.6,1128.6C26328.6,1101.19 26335.8,1080.45 26350.3,1066.38C26364.7,1052.3 26385.7,1045.26 26413.1,1045.26L26966.4,1045.26C26993.8,1045.26 27014.7,1052.3 27029.2,1066.38C27043.6,1080.45 27050.8,1101.19 27050.8,1128.6C27050.8,1155.26 27043.6,1175.82 27029.2,1190.26C27014.7,1204.71 26993.8,1211.93 26966.4,1211.93L26791.9,1211.93L26791.9,1735.26C26791.9,1767.86 26783.4,1793.23 26766.4,1811.38C26749.4,1829.52 26723.8,1838.6 26689.7,1838.6Z" style="fill-rule:nonzero;"/>
        </g>
        <g transform="matrix(1,0,0,1,-991.787,511.775)">
            <path d="M27247.5,1828.6C27212.7,1828.6 27186.2,1819.52 27168.1,1801.38C27149.9,1783.23 27140.8,1757.12 27140.8,1723.04L27140.8,1150.82C27140.8,1116.75 27149.9,1090.63 27168.1,1072.49C27186.2,1054.34 27212.7,1045.26 27247.5,1045.26L27624.2,1045.26C27650.8,1045.26 27670.8,1051.93 27684.2,1065.26C27697.5,1078.6 27704.2,1097.86 27704.2,1123.04C27704.2,1148.97 27697.5,1168.78 27684.2,1182.49C27670.8,1196.19 27650.8,1203.04 27624.2,1203.04L27336.4,1203.04L27336.4,1351.93L27599.7,1351.93C27625.7,1351.93 27645.5,1358.6 27659.2,1371.93C27672.9,1385.26 27679.7,1404.89 27679.7,1430.82C27679.7,1456.75 27672.9,1476.38 27659.2,1489.71C27645.5,1503.04 27625.7,1509.71 27599.7,1509.71L27336.4,1509.71L27336.4,1670.82L27624.2,1670.82C27650.8,1670.82 27670.8,1677.67 27684.2,1691.38C27697.5,1705.08 27704.2,1724.52 27704.2,1749.71C27704.2,1775.63 27697.5,1795.26 27684.2,1808.6C27670.8,1821.93 27650.8,1828.6 27624.2,1828.6L27247.5,1828.6Z" style="fill-rule:nonzero;"/>
        </g>
        <g transform="matrix(1,0,0,1,-991.787,511.775)">
            <path d="M28125.3,1840.82C28095.7,1840.82 28064.7,1838.78 28032.5,1834.71C28000.3,1830.63 27969.7,1824.52 27940.8,1816.38C27911.9,1808.23 27886,1798.6 27863.1,1787.49C27843.1,1777.86 27829,1765.08 27820.8,1749.15C27812.7,1733.23 27809.7,1716.38 27811.9,1698.6C27814.2,1680.82 27820.5,1665.08 27830.8,1651.38C27841.2,1637.67 27854.9,1628.41 27871.9,1623.6C27889,1618.78 27908.2,1621.19 27929.7,1630.82C27957.9,1644.15 27989.7,1654.52 28025.3,1661.93C28060.8,1669.34 28094.2,1673.04 28125.3,1673.04C28174.2,1673.04 28208.4,1666.56 28228.1,1653.6C28247.7,1640.63 28257.5,1624.52 28257.5,1605.26C28257.5,1588.23 28250.7,1574.52 28236.9,1564.15C28223.2,1553.78 28199,1544.89 28164.2,1537.49L28034.2,1509.71C27963.1,1494.89 27910.1,1468.97 27875.3,1431.93C27840.5,1394.89 27823.1,1347.12 27823.1,1288.6C27823.1,1250.08 27831,1215.08 27846.9,1183.6C27862.9,1152.12 27885.5,1125.26 27914.7,1103.04C27944,1080.82 27978.8,1063.6 28019.2,1051.38C28059.5,1039.15 28104.5,1033.04 28154.2,1033.04C28192.7,1033.04 28231.8,1037.3 28271.4,1045.82C28311,1054.34 28345.3,1067.12 28374.2,1084.15C28391.2,1093.04 28403.4,1105.26 28410.8,1120.82C28418.2,1136.38 28421.2,1152.49 28419.7,1169.15C28418.2,1185.82 28412.5,1200.45 28402.5,1213.04C28392.5,1225.63 28379.2,1233.97 28362.5,1238.04C28345.8,1242.12 28326,1239.34 28303.1,1229.71C28281.6,1220.08 28257.3,1212.86 28230.3,1208.04C28203.2,1203.23 28177.1,1200.82 28151.9,1200.82C28124.5,1200.82 28101.2,1203.97 28081.9,1210.26C28062.7,1216.56 28048.1,1225.63 28038.1,1237.49C28028.1,1249.34 28023.1,1263.04 28023.1,1278.6C28023.1,1294.15 28029.5,1307.3 28042.5,1318.04C28055.5,1328.78 28079.4,1337.86 28114.2,1345.26L28243.1,1373.04C28314.9,1388.6 28368.6,1414.15 28404.2,1449.71C28439.7,1485.26 28457.5,1531.56 28457.5,1588.6C28457.5,1627.12 28449.7,1661.93 28434.2,1693.04C28418.6,1724.15 28396.4,1750.63 28367.5,1772.49C28338.6,1794.34 28303.8,1811.19 28263.1,1823.04C28222.3,1834.89 28176.4,1840.82 28125.3,1840.82Z" style="fill-rule:nonzero;"/>
        </g>
        <g id="logo" transform="matrix(4.20611,0,0,0.949111,-10703.5,0)">
            <rect x="4839.6" y="0" width="4256.76" height="4106.38" style="fill:none;"/>
        </g>
    </g>
</svg>
